<svg xmlns="http://www.w3.org/2000/svg" viewBox="0 0 80 49.8"><defs><style>.cls-1{fill:#fff;opacity:0.67;}</style></defs><g id="Layer_2" data-name="Layer 2"><g id="Layer_1-2" data-name="Layer 1"><path class="cls-1" d="M79.59,3.23V5.72L44.07,37.21a6.15,6.15,0,0,1-8.15,0L.41,5.73V3.23A3.23,3.23,0,0,1,3.64,0H76.36A3.23,3.23,0,0,1,79.59,3.23Z"/><path class="cls-1" d="M80,10.92V44.57a5.23,5.23,0,0,1-5.23,5.23H5.23A5.23,5.23,0,0,1,0,44.57V10.92L33.24,40.38l.37.31a8.3,8.3,0,0,0,1.15.82,10.25,10.25,0,0,0,10.48,0,11.45,11.45,0,0,0,1.15-.82,3.68,3.68,0,0,0,.38-.31Z"/></g></g></svg>